<svg width="24" height="25" viewBox="0 0 24 25" fill="none" xmlns="http://www.w3.org/2000/svg">
<circle cx="12" cy="12.5518" r="12" fill="#FFFDFA"/>
<path fill-rule="evenodd" clip-rule="evenodd" d="M19.4628 6.97639L13.097 3.30108C12.4182 2.90917 11.5818 2.90917 10.903 3.30108L4.53722 6.97639C3.85842 7.36829 3.44026 8.09257 3.44026 8.87639V16.227C3.44026 17.0108 3.85842 17.7351 4.53722 18.127L10.903 21.8023C11.5818 22.1942 12.4182 22.1942 13.097 21.8023L19.4628 18.127C20.1416 17.7351 20.5597 17.0108 20.5597 16.227V8.87639C20.5597 8.09257 20.1416 7.36829 19.4628 6.97639ZM13.5671 2.4868C12.5974 1.92693 11.4026 1.92693 10.4329 2.4868L4.06709 6.1621C3.09737 6.72197 2.5 7.75665 2.5 8.87639V16.227C2.5 17.3467 3.09737 18.3814 4.06709 18.9413L10.4329 22.6166C11.4026 23.1765 12.5974 23.1765 13.5671 22.6166L19.9329 18.9413C20.9026 18.3814 21.5 17.3467 21.5 16.227V8.87639C21.5 7.75665 20.9026 6.72197 19.9329 6.1621L13.5671 2.4868Z" fill="#009595"/>
<path fill-rule="evenodd" clip-rule="evenodd" d="M7.75195 15.4262L11.8124 19.4865L15.8986 15.4003L14.5444 14.0461L11.8284 16.7621L10.4778 15.4116L13.1937 12.6956L11.8383 11.3398L7.75195 15.4262Z" fill="#222222"/>
<path fill-rule="evenodd" clip-rule="evenodd" d="M11.8595 5.87354L6.41211 11.3209L6.43048 14.0192L11.835 8.61485L17.2608 14.0407L17.2704 11.2845L11.8595 5.87354Z" fill="#38A0DA"/>
</svg>
