<svg width="1440" height="80" viewBox="0 0 1440 80" fill="none" xmlns="http://www.w3.org/2000/svg">
<g clip-path="url(#clip0_287_276)">
<mask id="mask0_287_276" style="mask-type:alpha" maskUnits="userSpaceOnUse" x="40" y="1" width="1360" height="78">
<path d="M82.1935 78.7143C76.1349 78.7143 70.5091 77.7942 65.3161 75.9539C60.1952 74.0429 55.7234 71.3534 51.9007 67.8852C48.1502 64.4171 45.2291 60.312 43.1375 55.5699C41.0458 50.8277 40 45.5902 40 39.8571C40 34.1241 41.0458 28.8865 43.1375 24.1444C45.2291 19.4023 48.1502 15.2972 51.9007 11.829C55.7234 8.36091 60.1952 5.70674 65.3161 3.86651C70.5091 1.9555 76.1349 1 82.1935 1C89.6224 1 96.1858 2.27401 101.884 4.82202C107.654 7.37002 112.414 11.0505 116.165 15.8634L100.045 29.9836C97.8087 27.2233 95.3203 25.0999 92.5796 23.6136C89.9109 22.0565 86.8816 21.2779 83.4917 21.2779C80.8231 21.2779 78.4069 21.7026 76.2431 22.5519C74.0793 23.4012 72.2041 24.6399 70.6173 26.2678C69.1027 27.8957 67.9126 29.8774 67.0471 32.2131C66.1816 34.478 65.7488 37.026 65.7488 39.8571C65.7488 42.6883 66.1816 45.2717 67.0471 47.6073C67.9126 49.8722 69.1027 51.8186 70.6173 53.4465C72.2041 55.0744 74.0793 56.313 76.2431 57.1624C78.4069 58.0117 80.8231 58.4364 83.4917 58.4364C86.8816 58.4364 89.9109 57.6932 92.5796 56.2069C95.3203 54.6497 97.8087 52.491 100.045 49.7307L116.165 63.8509C112.414 68.593 107.654 72.2735 101.884 74.8923C96.1858 77.4403 89.6224 78.7143 82.1935 78.7143Z" fill="white"/>
<path d="M165.444 78.7143C159.313 78.7143 153.615 77.7588 148.35 75.8478C143.157 73.9368 138.649 71.2472 134.826 67.7791C131.004 64.2402 128.01 60.0997 125.847 55.3575C123.755 50.6154 122.709 45.4486 122.709 39.8571C122.709 34.1949 123.755 29.0281 125.847 24.3568C128.01 19.6146 131.004 15.5095 134.826 12.0414C138.649 8.50247 143.157 5.77751 148.35 3.86651C153.615 1.9555 159.313 1 165.444 1C171.646 1 177.344 1.9555 182.537 3.86651C187.73 5.77751 192.238 8.50247 196.061 12.0414C199.884 15.5095 202.841 19.6146 204.932 24.3568C207.096 29.0281 208.178 34.1949 208.178 39.8571C208.178 45.4486 207.096 50.6154 204.932 55.3575C202.841 60.0997 199.884 64.2402 196.061 67.7791C192.238 71.2472 187.73 73.9368 182.537 75.8478C177.344 77.7588 171.646 78.7143 165.444 78.7143ZM165.444 58.4364C167.824 58.4364 170.024 58.0117 172.043 57.1624C174.135 56.313 175.938 55.1098 177.453 53.5527C179.039 51.9248 180.265 49.9784 181.131 47.7135C181.996 45.3778 182.429 42.759 182.429 39.8571C182.429 36.9552 181.996 34.3718 181.131 32.1069C180.265 29.7713 179.039 27.8249 177.453 26.2678C175.938 24.6399 174.135 23.4012 172.043 22.5519C170.024 21.7026 167.824 21.2779 165.444 21.2779C163.063 21.2779 160.828 21.7026 158.736 22.5519C156.716 23.4012 154.913 24.6399 153.326 26.2678C151.812 27.8249 150.622 29.7713 149.756 32.1069C148.891 34.3718 148.458 36.9552 148.458 39.8571C148.458 42.759 148.891 45.3778 149.756 47.7135C150.622 49.9784 151.812 51.9248 153.326 53.5527C154.913 55.1098 156.716 56.313 158.736 57.1624C160.828 58.0117 163.063 58.4364 165.444 58.4364Z" fill="white"/>
<path d="M221.232 77.0156V2.69867H242.22L280.735 47.9258H270.998V2.69867H295.882V77.0156H274.893L236.378 31.7884H246.115V77.0156H221.232Z" fill="white"/>
<path d="M335.772 34.3365H369.094V53.2342H335.772V34.3365ZM337.503 77.0156H311.97V2.69867H373.53V21.5964H337.503V77.0156Z" fill="white"/>
<path d="M385.382 77.0156V2.69867H410.915V57.587H445.102V77.0156H385.382Z" fill="white"/>
<path d="M491.656 78.7143C480.044 78.7143 470.992 75.6354 464.501 69.4778C458.01 63.3201 454.764 54.6851 454.764 43.573V2.69867H480.296V42.8298C480.296 48.4921 481.342 52.5264 483.434 54.9329C485.525 57.2685 488.338 58.4364 491.872 58.4364C495.479 58.4364 498.292 57.2685 500.311 54.9329C502.403 52.5264 503.449 48.4921 503.449 42.8298V2.69867H528.548V43.573C528.548 54.6851 525.303 63.3201 518.811 69.4778C512.32 75.6354 503.268 78.7143 491.656 78.7143Z" fill="white"/>
<path d="M535.95 77.0156L569.705 30.7268L569.597 48.2443L536.924 2.69867H565.594L584.635 30.3021L572.409 30.4083L591.018 2.69867H618.498L585.825 47.2888V29.8774L620.121 77.0156H590.91L571.869 48.1382L583.661 48.032L565.053 77.0156H535.95Z" fill="white"/>
<path d="M693.637 78.7143C687.578 78.7143 682.169 77.7942 677.409 75.9539C672.648 74.0429 668.898 71.4595 666.157 68.2038C663.416 64.948 662.046 61.2675 662.046 57.1624C662.046 53.0572 662.948 49.4476 664.751 46.3333C666.626 43.1483 669.475 40.3172 673.298 37.84C677.192 35.292 682.097 32.9209 688.011 30.7268C691.618 29.382 694.43 28.1434 696.45 27.0109C698.542 25.8785 700.02 24.8168 700.886 23.8259C701.751 22.7642 702.184 21.738 702.184 20.7471C702.184 19.6146 701.787 18.6945 700.994 17.9867C700.273 17.2789 699.155 16.9251 697.64 16.9251C695.981 16.9251 694.683 17.3497 693.745 18.1991C692.88 18.9776 692.447 19.9685 692.447 21.1717C692.447 21.9503 692.627 22.7289 692.988 23.5074C693.421 24.286 694.214 25.2415 695.368 26.3739C696.522 27.4356 698.145 28.8512 700.237 30.6206L740.05 63.8509L726.959 78.3958L681.087 39.751C678.635 37.7692 676.615 35.7874 675.029 33.8056C673.442 31.7531 672.252 29.7005 671.458 27.6479C670.665 25.5954 670.268 23.5428 670.268 21.4902C670.268 17.5267 671.386 14.0585 673.622 11.0859C675.93 8.04241 679.104 5.67135 683.143 3.97268C687.254 2.27401 692.05 1.42467 697.532 1.42467C702.581 1.42467 706.98 2.20323 710.731 3.76034C714.481 5.24668 717.402 7.40541 719.494 10.2365C721.586 13.0677 722.632 16.3942 722.632 20.2162C722.632 23.6136 721.73 26.6924 719.927 29.4528C718.196 32.2131 715.491 34.7257 711.813 36.9906C708.206 39.2555 703.626 41.4143 698.073 43.4668C695.188 44.5285 692.844 45.6255 691.041 46.758C689.237 47.8904 687.939 49.0937 687.146 50.3677C686.352 51.5709 685.956 52.9511 685.956 54.5082C685.956 55.6406 686.316 56.7023 687.038 57.6932C687.831 58.6841 688.913 59.4627 690.283 60.0289C691.726 60.5951 693.457 60.8782 695.476 60.8782C699.371 60.8782 703.013 59.8873 706.403 57.9055C709.865 55.853 712.823 52.9157 715.275 49.0937C717.799 45.2717 719.53 40.7065 720.468 35.3981L740.05 41.1311C738.391 48.4213 735.362 54.8975 730.962 60.5597C726.635 66.222 721.261 70.681 714.842 73.9368C708.495 77.1218 701.427 78.7143 693.637 78.7143Z" fill="white"/>
<path d="M789.508 77.0156V2.69867H826.833C835.272 2.69867 842.701 4.2204 849.12 7.26386C855.539 10.2365 860.552 14.4832 864.158 20.0039C867.764 25.5246 869.568 32.1069 869.568 39.751C869.568 47.4658 867.764 54.1189 864.158 59.7104C860.552 65.2311 855.539 69.5131 849.12 72.5566C842.701 75.5293 835.272 77.0156 826.833 77.0156H789.508ZM815.041 57.4809H825.751C829.357 57.4809 832.495 56.8085 835.164 55.4637C837.904 54.1189 840.032 52.1371 841.547 49.5183C843.061 46.8288 843.819 43.573 843.819 39.751C843.819 35.9997 843.061 32.8147 841.547 30.1959C840.032 27.5772 837.904 25.5954 835.164 24.2506C832.495 22.9058 829.357 22.2334 825.751 22.2334H815.041V57.4809Z" fill="white"/>
<path d="M922.382 78.7143C916.251 78.7143 910.553 77.7588 905.288 75.8478C900.095 73.9368 895.587 71.2472 891.765 67.7791C887.942 64.2402 884.949 60.0997 882.785 55.3575C880.693 50.6154 879.648 45.4486 879.648 39.8571C879.648 34.1949 880.693 29.0281 882.785 24.3568C884.949 19.6146 887.942 15.5095 891.765 12.0414C895.587 8.50247 900.095 5.77751 905.288 3.86651C910.553 1.9555 916.251 1 922.382 1C928.585 1 934.283 1.9555 939.476 3.86651C944.669 5.77751 949.177 8.50247 952.999 12.0414C956.822 15.5095 959.779 19.6146 961.871 24.3568C964.034 29.0281 965.116 34.1949 965.116 39.8571C965.116 45.4486 964.034 50.6154 961.871 55.3575C959.779 60.0997 956.822 64.2402 952.999 67.7791C949.177 71.2472 944.669 73.9368 939.476 75.8478C934.283 77.7588 928.585 78.7143 922.382 78.7143ZM922.382 58.4364C924.762 58.4364 926.962 58.0117 928.981 57.1624C931.073 56.313 932.876 55.1098 934.391 53.5527C935.978 51.9248 937.204 49.9784 938.069 47.7135C938.935 45.3778 939.368 42.759 939.368 39.8571C939.368 36.9552 938.935 34.3718 938.069 32.1069C937.204 29.7713 935.978 27.8249 934.391 26.2678C932.876 24.6399 931.073 23.4012 928.981 22.5519C926.962 21.7026 924.762 21.2779 922.382 21.2779C920.002 21.2779 917.766 21.7026 915.674 22.5519C913.655 23.4012 911.852 24.6399 910.265 26.2678C908.75 27.8249 907.56 29.7713 906.695 32.1069C905.829 34.3718 905.396 36.9552 905.396 39.8571C905.396 42.759 905.829 45.3778 906.695 47.7135C907.56 49.9784 908.75 51.9248 910.265 53.5527C911.852 55.1098 913.655 56.313 915.674 57.1624C917.766 58.0117 920.002 58.4364 922.382 58.4364Z" fill="white"/>
<path d="M1017.44 78.7143C1011.31 78.7143 1005.65 77.7942 1000.46 75.9539C995.336 74.0429 990.864 71.3534 987.042 67.8852C983.291 64.4171 980.37 60.312 978.278 55.5699C976.187 50.8277 975.141 45.5902 975.141 39.8571C975.141 34.1241 976.187 28.8865 978.278 24.1444C980.37 19.4023 983.327 15.2972 987.15 11.829C990.972 8.36091 995.48 5.70674 1000.67 3.86651C1005.94 1.9555 1011.71 1 1017.98 1C1025.48 1 1032.16 2.23861 1038 4.71584C1043.91 7.19308 1048.78 10.732 1052.6 15.3326L1036.27 29.4528C1033.89 26.7632 1031.29 24.746 1028.48 23.4013C1025.74 21.9857 1022.67 21.2779 1019.28 21.2779C1016.47 21.2779 1013.91 21.7026 1011.6 22.5519C1009.36 23.4012 1007.45 24.6399 1005.87 26.2678C1004.28 27.8957 1003.05 29.842 1002.19 32.1069C1001.32 34.3718 1000.89 36.9552 1000.89 39.8571C1000.89 42.6175 1001.32 45.1655 1002.19 47.5012C1003.05 49.7661 1004.28 51.7125 1005.87 53.3404C1007.45 54.9683 1009.33 56.2423 1011.49 57.1624C1013.73 58.0117 1016.22 58.4364 1018.96 58.4364C1021.84 58.4364 1024.66 57.9763 1027.4 57.0562C1030.14 56.0653 1033.06 54.402 1036.16 52.0664L1050.44 69.2654C1045.82 72.3089 1040.56 74.6445 1034.64 76.2724C1028.73 77.9003 1023 78.7143 1017.44 78.7143ZM1028.26 66.0804V37.84H1050.44V69.2654L1028.26 66.0804Z" fill="white"/>
<path d="M1065.11 77.0156V2.69867H1101.56C1108.63 2.69867 1114.73 3.83112 1119.85 6.09602C1125.04 8.36091 1129.04 11.6167 1131.86 15.8634C1134.67 20.0393 1136.08 24.9938 1136.08 30.7268C1136.08 36.4598 1134.67 41.4143 1131.86 45.5902C1129.04 49.7661 1125.04 53.0219 1119.85 55.3575C1114.73 57.6224 1108.63 58.7549 1101.56 58.7549H1079.28L1090.64 48.032V77.0156H1065.11ZM1090.64 50.7923L1079.28 39.4325H1099.94C1103.48 39.4325 1106.07 38.6539 1107.73 37.0968C1109.46 35.5397 1110.33 33.4163 1110.33 30.7268C1110.33 28.0372 1109.46 25.9139 1107.73 24.3568C1106.07 22.7996 1103.48 22.0211 1099.94 22.0211H1079.28L1090.64 10.6612V50.7923Z" fill="white"/>
<path d="M1189 78.7143C1182.87 78.7143 1177.17 77.7588 1171.91 75.8478C1166.71 73.9368 1162.2 71.2472 1158.38 67.7791C1154.56 64.2402 1151.57 60.0997 1149.4 55.3575C1147.31 50.6154 1146.26 45.4486 1146.26 39.8571C1146.26 34.1949 1147.31 29.0281 1149.4 24.3568C1151.57 19.6146 1154.56 15.5095 1158.38 12.0414C1162.2 8.50247 1166.71 5.77751 1171.91 3.86651C1177.17 1.9555 1182.87 1 1189 1C1195.2 1 1200.9 1.9555 1206.09 3.86651C1211.29 5.77751 1215.79 8.50247 1219.62 12.0414C1223.44 15.5095 1226.4 19.6146 1228.49 24.3568C1230.65 29.0281 1231.73 34.1949 1231.73 39.8571C1231.73 45.4486 1230.65 50.6154 1228.49 55.3575C1226.4 60.0997 1223.44 64.2402 1219.62 67.7791C1215.79 71.2472 1211.29 73.9368 1206.09 75.8478C1200.9 77.7588 1195.2 78.7143 1189 78.7143ZM1189 58.4364C1191.38 58.4364 1193.58 58.0117 1195.6 57.1624C1197.69 56.313 1199.49 55.1098 1201.01 53.5527C1202.59 51.9248 1203.82 49.9784 1204.69 47.7135C1205.55 45.3778 1205.98 42.759 1205.98 39.8571C1205.98 36.9552 1205.55 34.3718 1204.69 32.1069C1203.82 29.7713 1202.59 27.8249 1201.01 26.2678C1199.49 24.6399 1197.69 23.4012 1195.6 22.5519C1193.58 21.7026 1191.38 21.2779 1189 21.2779C1186.62 21.2779 1184.38 21.7026 1182.29 22.5519C1180.27 23.4012 1178.47 24.6399 1176.88 26.2678C1175.37 27.8249 1174.18 29.7713 1173.31 32.1069C1172.45 34.3718 1172.01 36.9552 1172.01 39.8571C1172.01 42.759 1172.45 45.3778 1173.31 47.7135C1174.18 49.9784 1175.37 51.9248 1176.88 53.5527C1178.47 55.1098 1180.27 56.313 1182.29 57.1624C1184.38 58.0117 1186.62 58.4364 1189 58.4364Z" fill="white"/>
<path d="M1284.49 78.7143C1278.36 78.7143 1272.66 77.7588 1267.4 75.8478C1262.21 73.9368 1257.7 71.2472 1253.87 67.7791C1250.05 64.2402 1247.06 60.0997 1244.9 55.3575C1242.8 50.6154 1241.76 45.4486 1241.76 39.8571C1241.76 34.1949 1242.8 29.0281 1244.9 24.3568C1247.06 19.6146 1250.05 15.5095 1253.87 12.0414C1257.7 8.50247 1262.21 5.77751 1267.4 3.86651C1272.66 1.9555 1278.36 1 1284.49 1C1290.69 1 1296.39 1.9555 1301.59 3.86651C1306.78 5.77751 1311.29 8.50247 1315.11 12.0414C1318.93 15.5095 1321.89 19.6146 1323.98 24.3568C1326.14 29.0281 1327.23 34.1949 1327.23 39.8571C1327.23 45.4486 1326.14 50.6154 1323.98 55.3575C1321.89 60.0997 1318.93 64.2402 1315.11 67.7791C1311.29 71.2472 1306.78 73.9368 1301.59 75.8478C1296.39 77.7588 1290.69 78.7143 1284.49 78.7143ZM1284.49 58.4364C1286.87 58.4364 1289.07 58.0117 1291.09 57.1624C1293.18 56.313 1294.99 55.1098 1296.5 53.5527C1298.09 51.9248 1299.31 49.9784 1300.18 47.7135C1301.04 45.3778 1301.48 42.759 1301.48 39.8571C1301.48 36.9552 1301.04 34.3718 1300.18 32.1069C1299.31 29.7713 1298.09 27.8249 1296.5 26.2678C1294.99 24.6399 1293.18 23.4012 1291.09 22.5519C1289.07 21.7026 1286.87 21.2779 1284.49 21.2779C1282.11 21.2779 1279.88 21.7026 1277.78 22.5519C1275.76 23.4012 1273.96 24.6399 1272.37 26.2678C1270.86 27.8249 1269.67 29.7713 1268.8 32.1069C1267.94 34.3718 1267.51 36.9552 1267.51 39.8571C1267.51 42.759 1267.94 45.3778 1268.8 47.7135C1269.67 49.9784 1270.86 51.9248 1272.37 53.5527C1273.96 55.1098 1275.76 56.313 1277.78 57.1624C1279.88 58.0117 1282.11 58.4364 1284.49 58.4364Z" fill="white"/>
<path d="M1340.28 77.0156V2.69867H1365.81V57.587H1400V77.0156H1340.28Z" fill="white"/>
</mask>
<g mask="url(#mask0_287_276)">
<rect x="-255.246" y="-503.042" width="1876.58" height="963.225" fill="white"/>
<g opacity="0.7" filter="url(#filter0_f_287_276)">
<ellipse cx="209.915" cy="157.493" rx="209.915" ry="157.493" transform="matrix(0.982826 0.187935 -0.349939 0.937685 349.884 -138.481)" fill="#38A0DA"/>
</g>
<g opacity="0.7" filter="url(#filter1_f_287_276)">
<ellipse cx="209.915" cy="157.493" rx="209.915" ry="157.493" transform="matrix(0.982826 0.187935 -0.349939 0.937685 663.038 -157.286)" fill="#FFCB14"/>
</g>
</g>
</g>
<defs>
<filter id="filter0_f_287_276" x="-85.5168" y="-477.247" width="1173.2" height="1051.79" filterUnits="userSpaceOnUse" color-interpolation-filters="sRGB">
<feFlood flood-opacity="0" result="BackgroundImageFix"/>
<feBlend mode="normal" in="SourceGraphic" in2="BackgroundImageFix" result="shape"/>
<feGaussianBlur stdDeviation="186.5" result="effect1_foregroundBlur_287_276"/>
</filter>
<filter id="filter1_f_287_276" x="227.638" y="-496.052" width="1173.2" height="1051.79" filterUnits="userSpaceOnUse" color-interpolation-filters="sRGB">
<feFlood flood-opacity="0" result="BackgroundImageFix"/>
<feBlend mode="normal" in="SourceGraphic" in2="BackgroundImageFix" result="shape"/>
<feGaussianBlur stdDeviation="186.5" result="effect1_foregroundBlur_287_276"/>
</filter>
<clipPath id="clip0_287_276">
<rect width="1440" height="80" fill="white"/>
</clipPath>
</defs>
</svg>
